# xmcd
#
# Track frame offsets: 
#        150
#        13345
#        30397
#        55747
#        70708
#        90150
#        101336
#        125807
#        141326
#        155640
#
# Disc length: 2336 seconds
#
# Revision: 0
# Processed by: cddbd v1.5.2PL0 Copyright (c) Steve Scherf et al.
# Submitted via: ExactAudioCopyFreeDBPlugin 1.0
#
DISCID=7e091e0a
DTITLE=Jozef Fábik J.P.T. - Zanzibar
DYEAR=2006
DGENRE=Blues
TTITLE0=Čierny kocúr
TTITLE1=Nehodím sa na to
TTITLE2=Údolie
TTITLE3=Skús plakať
TTITLE4=Stratený
TTITLE5=Polovičný svet
TTITLE6=Vlakové blues
TTITLE7=Farewell
TTITLE8=Žalospev pajácov
TTITLE9=Lazy Blues
EXTD=
EXTT0=
EXTT1=
EXTT2=
EXTT3=
EXTT4=
EXTT5=
EXTT6=
EXTT7=
EXTT8=
EXTT9=
PLAYORDER=
